<?xml version="1.0" standalone="no"?>
<!DOCTYPE svg PUBLIC "-//W3C//DTD SVG 20010904//EN"
 "http://www.w3.org/TR/2001/REC-SVG-20010904/DTD/svg10.dtd">
<svg version="1.0" xmlns="http://www.w3.org/2000/svg"
 width="6000.000000pt" height="4000.000000pt" viewBox="0 0 6000.000000 4000.000000"
 preserveAspectRatio="xMidYMid meet">
<metadata>
Created by potrace 1.15, written by Peter Selinger 2001-2017
</metadata>
<g transform="translate(0.000000,4000.000000) scale(0.100000,-0.100000)"
fill="#000000" stroke="none">
<path d="M15505 31420 c-345 -24 -755 -96 -1081 -190 l-102 -29 -217 44 c-632
129 -1093 170 -1935 170 -568 0 -663 -5 -1155 -55 -831 -86 -1668 -251 -2458
-487 l-188 -56 -197 66 c-559 186 -1084 267 -1642 254 -663 -15 -1229 -154
-1845 -451 -224 -108 -373 -194 -580 -331 -1048 -698 -1726 -1777 -1826 -2908
-15 -164 -6 -540 16 -695 22 -160 59 -336 101 -485 l36 -127 -63 -138 c-435
-956 -599 -1862 -498 -2748 95 -839 412 -1646 899 -2293 226 -300 548 -623
852 -854 436 -331 936 -565 1448 -677 140 -30 392 -70 446 -70 25 0 37 -9 65
-47 52 -73 264 -287 359 -363 293 -232 645 -400 995 -473 241 -51 373 -62 730
-62 256 1 359 5 459 18 669 91 1350 367 2056 836 181 120 493 353 670 501 769
642 1829 1768 2820 2992 l135 167 8 -47 c23 -145 60 -224 141 -299 34 -32 87
-71 119 -87 51 -25 64 -28 139 -24 68 3 95 9 153 36 261 123 567 396 983 877
l43 50 -54 -110 c-61 -123 -119 -294 -143 -424 -23 -125 -16 -269 17 -341 69
-149 197 -194 374 -132 97 34 199 93 299 172 71 56 376 381 576 613 51 59 94
106 95 105 2 -2 -19 -69 -46 -150 -57 -173 -74 -291 -64 -446 9 -140 26 -194
79 -247 54 -53 119 -76 218 -76 88 0 138 16 237 78 171 107 268 205 690 697
91 105 162 184 158 176 -3 -8 -27 -66 -52 -128 -65 -158 -87 -272 -87 -452 -1
-125 3 -153 21 -202 26 -68 82 -122 143 -139 66 -18 210 -6 290 24 148 54 198
94 521 415 192 191 247 240 240 217 -14 -53 -9 -246 9 -300 30 -95 60 -144
122 -202 89 -84 163 -118 252 -118 63 0 80 5 155 42 196 97 398 260 714 577
l211 211 -47 -105 c-71 -158 -92 -250 -93 -400 0 -164 17 -226 82 -291 131
-130 386 -97 616 79 137 105 571 557 1113 1160 348 386 498 548 710 764 140
143 180 178 208 184 45 8 55 0 55 -47 0 -82 -105 -279 -320 -603 -166 -250
-288 -413 -686 -926 -182 -234 -339 -440 -348 -458 -10 -19 -16 -49 -14 -70 3
-31 9 -40 44 -59 80 -44 312 -53 429 -16 115 37 159 77 332 306 172 228 283
357 430 497 220 210 433 378 641 504 l92 56 47 -31 c82 -51 141 -64 293 -63
118 1 297 22 343 40 9 3 -14 -39 -50 -93 -123 -183 -244 -480 -274 -677 -19
-122 -1 -247 51 -358 28 -60 128 -154 203 -192 51 -25 64 -28 139 -24 68 3 95
9 153 36 261 123 567 396 983 877 l43 50 -54 -110 c-61 -123 -119 -294 -143
-424 -23 -125 -16 -269 17 -341 48 -104 131 -160 237 -160 115 0 299 87 448
210 59 48 366 374 529 561 l40 46 0 -181 c0 -207 10 -260 75 -393 66 -134 138
-183 271 -183 117 0 271 52 423 141 90 53 282 190 411 292 168 134 570 550
760 787 19 24 24 25 150 26 144 1 235 14 371 50 312 83 661 306 881 563 101
118 163 216 163 258 0 66 -85 118 -131 81 -9 -7 -47 -56 -86 -108 -230 -310
-655 -583 -1003 -644 -47 -8 -111 -17 -143 -20 l-58 -5 22 37 c132 224 213
396 246 521 20 81 24 114 21 206 -5 129 -20 168 -98 246 -176 176 -435 171
-872 -16 -324 -140 -532 -278 -757 -505 -219 -221 -346 -397 -472 -654 -73
-150 -86 -169 -206 -310 -161 -189 -518 -549 -643 -648 -260 -206 -320 -188
-234 72 62 187 164 366 727 1273 l365 588 453 467 c250 257 598 615 774 795
422 434 590 610 814 857 102 112 296 317 430 455 251 258 428 450 541 590 35
44 150 181 255 305 309 365 353 425 452 619 114 226 109 315 -22 384 -65 34
-227 36 -380 4 -340 -71 -536 -204 -1090 -734 -691 -662 -1132 -1207 -2041
-2523 -283 -410 -445 -665 -639 -1007 l-69 -121 -27 46 c-79 137 -155 178
-329 176 -91 -1 -117 -5 -195 -33 -150 -54 -400 -183 -560 -290 -221 -148
-336 -248 -550 -481 -87 -96 -332 -208 -501 -231 -103 -13 -235 -8 -283 12
l-34 15 144 96 c224 149 345 244 460 358 123 123 155 176 153 260 -2 125 -87
190 -229 177 -82 -8 -152 -32 -273 -95 -238 -122 -414 -301 -504 -511 -27 -64
-32 -88 -32 -156 l0 -80 -101 -67 c-55 -36 -156 -105 -225 -152 -69 -47 -128
-86 -133 -86 -4 0 13 39 37 88 54 107 159 417 180 531 36 188 4 330 -98 435
-57 58 -99 79 -161 79 -61 0 -89 -14 -213 -106 -53 -39 -118 -83 -145 -98 -37
-20 -82 -66 -179 -180 -545 -646 -1446 -1606 -1648 -1757 -82 -61 -182 -105
-220 -97 -44 10 -70 47 -60 89 23 103 260 505 404 686 28 36 78 103 111 150
142 206 586 767 815 1031 78 90 147 173 153 186 30 66 -123 112 -374 113 -144
0 -250 -45 -369 -159 l-60 -56 -6 35 c-10 62 -26 104 -56 152 -78 125 -257
185 -430 144 -152 -36 -416 -170 -671 -343 -194 -131 -365 -282 -500 -442 -40
-47 -103 -122 -141 -166 -146 -170 -292 -376 -355 -504 -26 -50 -78 -111 -255
-295 -374 -388 -545 -545 -674 -621 -88 -52 -130 -62 -172 -40 -37 19 -37 35
-6 119 76 200 220 429 547 866 353 473 627 818 862 1087 96 110 103 131 57
164 -51 38 -139 51 -318 47 -165 -3 -168 -3 -232 -35 -81 -40 -152 -102 -283
-251 -144 -163 -216 -253 -347 -432 -62 -85 -168 -222 -234 -305 -67 -82 -184
-230 -259 -327 -75 -97 -156 -199 -178 -225 -97 -112 -471 -501 -549 -570
-157 -139 -280 -193 -329 -144 -25 25 -26 39 -6 116 36 135 146 324 309 529
41 52 211 269 377 483 166 213 399 507 519 653 262 320 330 413 330 451 0 45
-31 59 -129 59 -130 0 -462 -30 -498 -45 -18 -8 -50 -38 -72 -67 -302 -400
-532 -692 -686 -868 -55 -63 -143 -169 -196 -235 -276 -344 -661 -751 -859
-907 -260 -206 -320 -188 -234 72 62 187 164 366 727 1273 l365 588 453 467
c250 257 598 615 774 795 422 434 590 610 814 857 102 112 296 317 430 455
251 258 428 450 541 590 35 44 150 181 255 305 309 365 353 425 452 619 114
226 109 315 -22 384 -65 34 -227 36 -380 4 -340 -71 -536 -204 -1090 -734
-691 -662 -1132 -1207 -2041 -2523 -283 -410 -445 -665 -639 -1007 l-69 -121
-27 46 c-79 137 -155 178 -329 176 -129 -1 -205 -26 -445 -144 -325 -160 -630
-392 -838 -639 -40 -47 -103 -122 -141 -166 -135 -157 -289 -373 -347 -485
-12 -25 -41 -86 -63 -137 -38 -85 -67 -123 -386 -509 -405 -490 -694 -827
-1184 -1379 -531 -597 -1057 -1125 -1506 -1510 -283 -243 -634 -513 -869 -669
-581 -385 -1233 -654 -1863 -770 -415 -76 -877 -55 -1278 61 -376 107 -688
295 -955 574 l-90 94 80 2 c458 14 778 58 1200 167 1170 304 2187 897 3095
1806 749 748 1294 1601 1645 2570 210 581 306 1070 322 1630 23 829 -169 1648
-563 2408 l-84 162 69 139 c199 397 412 685 796 1080 343 351 653 602 1190
963 448 301 704 446 1053 598 l164 71 116 -37 c107 -33 398 -141 837 -311 517
-200 743 -267 1120 -333 235 -42 328 -50 450 -39 185 16 339 68 402 136 80 88
95 263 34 387 -37 77 -144 182 -299 296 -281 206 -559 310 -972 365 -279 36
-705 52 -955 35z m-2330 -224 c88 -8 232 -22 320 -30 88 -8 216 -20 285 -26
69 -6 154 -15 188 -21 l64 -11 -169 -68 c-705 -282 -1351 -696 -1818 -1165
-367 -368 -665 -767 -851 -1137 l-55 -109 -71 93 c-405 532 -1010 1105 -1561
1480 -165 111 -412 261 -584 353 -62 33 -113 63 -113 66 -1 19 811 233 1194
314 635 133 1402 239 1991 274 224 14 988 5 1180 -13z m3295 0 c204 -26 350
-63 530 -133 160 -63 237 -103 367 -190 179 -119 283 -252 283 -362 0 -37 -5
-49 -34 -76 -47 -44 -189 -112 -261 -126 -101 -19 -387 -5 -535 26 -281 59
-632 159 -859 245 -69 26 -292 122 -496 212 -203 91 -388 171 -410 177 -66 21
-68 21 -63 27 13 12 197 69 341 104 168 42 427 85 592 99 164 14 422 12 545
-3z m-9240 -280 c200 -24 433 -65 540 -96 52 -15 148 -43 213 -60 65 -18 115
-36 110 -40 -4 -4 -69 -28 -143 -55 -395 -141 -860 -342 -1290 -556 -933 -467
-1665 -959 -2375 -1598 -179 -161 -540 -520 -686 -681 -373 -414 -725 -895
-981 -1341 l-73 -128 -12 52 c-25 106 -53 325 -64 513 -24 389 24 734 162
1147 223 669 675 1307 1304 1838 700 590 1563 940 2515 1019 153 12 621 4 780
-14z m1565 -470 c870 -433 1635 -1088 2179 -1865 l94 -134 -23 -66 c-131 -373
-169 -582 -169 -936 0 -215 10 -326 46 -493 23 -109 75 -271 117 -365 17 -37
28 -67 26 -67 -2 0 -35 20 -72 44 -472 304 -1041 409 -1658 304 -130 -22 -397
-86 -489 -118 l-57 -19 -72 59 c-110 91 -309 215 -400 251 -228 88 -367 113
-627 114 -278 0 -397 -24 -720 -147 -211 -81 -253 -86 -355 -48 -293 110 -358
98 -516 -95 -149 -183 -282 -479 -325 -727 -35 -198 -1 -445 87 -628 44 -93
97 -180 109 -180 4 0 10 42 13 94 38 576 418 1140 967 1435 227 121 463 181
722 181 220 0 392 -33 565 -108 97 -42 258 -144 333 -211 54 -48 51 -52 -62
-96 -320 -124 -737 -360 -1048 -594 -271 -204 -642 -551 -856 -801 -347 -404
-620 -813 -880 -1315 -338 -655 -563 -1309 -660 -1920 -9 -60 -18 -112 -20
-113 -7 -10 -247 118 -350 187 -343 228 -587 536 -703 888 -115 347 -97 693
54 1034 69 157 59 149 160 105 188 -81 389 -143 545 -166 97 -14 320 -15 400
0 219 40 390 137 515 293 169 212 204 406 108 598 -97 194 -270 288 -529 289
-190 0 -365 -65 -599 -221 -181 -121 -317 -253 -483 -469 -36 -47 -71 -91 -77
-98 -27 -30 -360 207 -557 396 -296 286 -500 565 -728 998 l-118 224 80 138
c343 587 835 1210 1413 1787 1164 1163 2548 2024 4195 2611 113 40 207 73 210
74 3 0 100 -47 215 -104z m11477 -1461 c26 -57 -119 -275 -411 -620 -567 -668
-1406 -1591 -1981 -2180 -118 -121 -313 -321 -433 -444 l-218 -225 111 160
c608 875 1317 1806 1648 2162 76 81 203 224 283 317 80 94 249 277 375 409
287 299 403 395 527 437 57 19 85 15 99 -16z m10150 0 c26 -57 -119 -275 -411
-620 -567 -668 -1406 -1591 -1981 -2180 -118 -121 -313 -321 -433 -444 l-218
-225 111 160 c608 875 1317 1806 1648 2162 76 81 203 224 283 317 80 94 249
277 375 409 287 299 403 395 527 437 57 19 85 15 99 -16z m-18873 -1460 c135
-341 219 -658 270 -1010 62 -432 59 -926 -9 -1380 -112 -749 -449 -1601 -933
-2360 -594 -932 -1463 -1786 -2372 -2332 -533 -320 -1174 -595 -1675 -717
-342 -83 -590 -116 -945 -123 l-260 -6 -48 97 c-232 472 -303 969 -221 1560
15 109 61 346 68 353 2 2 44 -3 92 -11 357 -61 698 -43 1047 55 584 165 1094
461 1531 888 618 606 1026 1342 1175 2121 47 249 55 344 55 645 0 256 -2 305
-22 420 -47 270 -116 464 -239 668 -19 32 -33 60 -31 62 26 26 310 125 483
169 223 56 266 61 515 61 207 -1 247 -3 339 -23 235 -52 524 -167 648 -259 89
-67 268 -232 308 -284 21 -28 50 -55 63 -60 32 -12 87 5 107 34 24 35 18 71
-29 160 -70 135 -135 425 -156 703 -11 146 -1 372 25 546 13 86 56 278 72 318
7 19 64 -99 142 -295z m-2631 -1237 c147 -266 212 -549 212 -921 0 -475 -132
-997 -380 -1502 -415 -842 -1155 -1580 -1912 -1904 -363 -156 -664 -222 -1023
-225 -163 -1 -321 9 -343 23 -14 9 8 116 53 259 30 95 174 444 276 671 356
785 933 1729 1407 2299 380 455 899 931 1297 1187 87 57 344 204 356 205 3 0
29 -42 57 -92z m-6297 -570 c45 -88 196 -326 293 -462 302 -423 566 -688 959
-967 70 -50 127 -92 127 -93 0 -2 -22 -50 -49 -107 -58 -123 -102 -253 -137
-404 -35 -151 -44 -379 -20 -526 29 -176 123 -426 222 -592 199 -332 569 -646
952 -810 60 -25 63 -29 58 -55 -3 -15 -11 -124 -16 -242 -34 -674 71 -1243
320 -1740 55 -110 58 -120 38 -116 -13 3 -59 10 -103 16 -213 30 -484 100
-721 185 -895 325 -1647 1039 -2119 2010 -218 450 -324 823 -392 1377 -21 178
-24 618 -5 788 46 395 161 844 327 1265 92 235 221 515 237 515 4 0 17 -19 29
-42z m2851 -756 c79 -39 163 -124 204 -208 33 -67 42 -151 25 -221 -19 -76
-88 -181 -175 -269 -70 -69 -97 -88 -196 -137 -142 -70 -205 -87 -345 -94
-124 -6 -282 16 -440 62 -94 27 -343 122 -359 136 -13 12 145 209 274 340 164
167 290 257 464 332 149 64 285 97 391 94 80 -2 99 -6 157 -35z m15493 -163
c21 -6 54 -26 71 -43 46 -46 52 -90 25 -188 -40 -152 -72 -203 -356 -573 -148
-192 -294 -381 -325 -420 -289 -355 -752 -808 -921 -899 -99 -55 -239 -42
-239 21 1 39 65 189 135 313 103 183 304 469 514 729 64 79 158 199 210 265
203 261 415 500 573 646 169 157 211 177 313 149z m-5040 -26 c36 -36 55 -82
55 -132 0 -188 -302 -672 -683 -1094 -306 -339 -646 -674 -802 -790 -94 -70
-206 -127 -251 -127 -49 0 -84 34 -84 80 0 52 46 176 113 303 60 115 314 474
498 703 66 82 156 196 201 254 316 407 623 730 762 800 81 41 151 42 191 3z
m10150 0 c36 -36 55 -82 55 -132 0 -188 -302 -672 -683 -1094 -306 -339 -646
-674 -802 -790 -94 -70 -206 -127 -251 -127 -49 0 -84 34 -84 80 0 52 46 176
113 303 60 115 314 474 498 703 66 82 156 196 201 254 316 407 623 730 762
800 81 41 151 42 191 3z m2687 2 c77 -52 97 -118 69 -226 -55 -215 -148 -389
-359 -673 -209 -280 -591 -690 -804 -864 -114 -92 -418 -307 -475 -336 -77
-38 -160 -58 -215 -51 -81 11 -98 55 -69 179 60 250 281 649 544 979 175 219
434 491 646 676 94 82 302 239 371 279 111 66 228 81 292 37z"/>
<path d="M46036 31400 c-424 -30 -1163 -166 -1469 -272 l-87 -30 -108 26
c-599 143 -1385 220 -2237 220 -523 0 -845 -19 -1335 -80 -534 -66 -1127 -189
-1645 -341 -104 -30 -206 -60 -226 -65 -31 -8 -54 -4 -161 31 -373 121 -809
203 -1223 231 -679 45 -1403 -79 -2033 -349 -715 -306 -1372 -826 -1834 -1451
-323 -438 -529 -857 -642 -1305 -137 -549 -124 -1181 38 -1739 l25 -87 -51
-112 c-359 -794 -539 -1705 -499 -2527 27 -555 118 -927 358 -1469 323 -730
846 -1391 1471 -1859 442 -330 958 -550 1513 -643 l135 -23 29 -71 c125 -308
314 -575 548 -772 289 -242 642 -403 1002 -458 234 -35 559 -29 824 15 402 68
911 254 1320 481 491 274 1022 655 1606 1153 88 75 250 213 360 305 431 363
767 682 1358 1291 621 639 848 881 1271 1355 133 148 255 285 271 303 l30 33
0 -168 c0 -193 11 -249 75 -380 66 -134 138 -183 271 -183 117 0 271 52 423
141 90 53 282 190 411 292 168 134 570 550 760 787 19 24 24 25 150 26 144 1
235 14 372 50 152 40 346 130 498 229 l30 20 -26 -45 c-195 -336 -373 -727
-436 -955 -23 -84 -27 -120 -28 -225 0 -152 19 -210 97 -295 86 -95 191 -108
345 -44 86 36 204 111 284 180 31 27 142 140 245 252 104 111 212 226 239 255
l50 53 0 -163 c0 -188 12 -246 75 -375 66 -134 138 -183 271 -183 122 0 289
59 446 156 93 57 308 212 413 298 164 133 474 454 680 703 l75 90 60 6 c145
15 293 78 411 176 79 66 259 257 423 451 166 197 281 318 316 334 48 23 74 20
87 -9 26 -57 -76 -261 -299 -600 -174 -263 -287 -417 -695 -942 -217 -279
-369 -484 -373 -502 -16 -72 37 -96 210 -94 258 2 371 52 573 251 101 100 186
203 402 492 336 448 719 880 1081 1219 175 164 239 205 323 206 50 0 51 -1 54
-32 6 -62 -147 -314 -324 -534 -49 -61 -102 -130 -119 -152 -16 -23 -249 -336
-517 -695 -447 -598 -488 -657 -488 -692 0 -31 6 -43 28 -58 65 -47 144 -52
311 -21 254 46 294 78 575 452 185 246 654 767 1060 1176 416 418 490 486 641
586 183 121 217 133 248 83 24 -36 -27 -112 -188 -278 -113 -117 -214 -234
-320 -370 -49 -63 -132 -166 -185 -228 -302 -358 -471 -597 -533 -752 -85
-216 -53 -512 67 -618 96 -84 338 -83 521 2 109 51 266 174 420 330 l140 141
1 -100 c1 -159 41 -262 138 -352 89 -84 163 -118 252 -118 63 0 80 5 155 42
196 97 398 260 714 577 l211 211 -47 -105 c-71 -158 -92 -250 -93 -400 0 -164
17 -226 82 -291 131 -130 386 -97 616 79 137 105 571 557 1113 1160 147 163
355 391 463 505 259 276 269 288 276 325 6 27 1 37 -29 67 -40 40 -76 45 -119
17 -15 -9 -84 -84 -154 -167 -522 -622 -1442 -1602 -1644 -1753 -82 -61 -182
-105 -220 -97 -44 10 -70 47 -60 89 23 103 260 505 404 686 28 36 78 103 111
150 142 206 586 767 815 1031 78 90 147 173 153 186 30 66 -123 112 -374 113
-144 0 -250 -45 -369 -159 l-60 -56 -6 35 c-10 62 -26 104 -56 152 -78 125
-257 185 -430 144 -152 -36 -416 -170 -671 -343 -194 -131 -365 -282 -500
-442 -40 -47 -103 -122 -141 -166 -203 -236 -342 -451 -427 -658 -19 -47 -49
-85 -146 -187 -199 -207 -458 -427 -573 -485 -62 -32 -122 -33 -151 -4 -47 47
-5 213 94 371 25 41 179 229 342 418 321 373 544 659 598 767 19 37 47 106 63
153 25 73 29 100 29 190 -1 85 -5 116 -23 162 -34 84 -82 149 -137 183 -41 25
-61 31 -127 34 -143 6 -243 -40 -431 -198 -108 -92 -739 -702 -859 -832 l-78
-84 66 145 c115 253 139 348 132 530 -3 99 -8 123 -32 175 -49 107 -91 135
-204 135 -212 0 -382 -130 -950 -725 l-191 -200 45 130 c120 345 125 537 16
680 -100 131 -218 147 -367 48 -104 -69 -182 -148 -451 -459 -256 -296 -285
-326 -372 -382 -54 -34 -160 -77 -169 -69 -2 3 24 54 58 113 96 167 168 326
195 432 21 82 25 115 22 207 -5 129 -20 168 -98 246 -176 176 -435 171 -872
-16 -324 -140 -532 -278 -757 -505 -210 -212 -349 -402 -460 -630 -34 -69 -73
-149 -89 -177 -36 -70 -263 -323 -555 -619 -281 -286 -377 -358 -445 -333 -16
6 -22 16 -22 38 0 42 60 200 134 356 86 179 402 721 662 1135 61 96 173 276
249 400 157 256 482 749 607 920 81 111 87 117 169 160 120 65 360 234 658
464 508 391 1070 952 1752 1747 371 433 585 720 665 893 103 224 96 370 -20
441 -66 40 -148 44 -321 15 -364 -61 -476 -115 -795 -381 -451 -375 -864 -815
-1435 -1529 -393 -492 -516 -658 -900 -1215 -485 -703 -624 -918 -835 -1290
-157 -278 -323 -454 -590 -627 -229 -149 -454 -231 -693 -252 l-58 -5 22 37
c132 224 213 396 246 521 20 81 24 114 21 206 -5 129 -20 168 -98 246 -176
176 -435 171 -872 -16 -324 -140 -532 -278 -757 -505 -206 -208 -340 -389
-456 -620 -62 -123 -69 -132 -360 -465 -657 -752 -1032 -1154 -1709 -1830
-1129 -1128 -1765 -1678 -2536 -2190 -533 -354 -857 -525 -1311 -690 -355
-129 -601 -177 -914 -178 -205 -1 -315 10 -494 50 -573 126 -1012 489 -1225
1012 l-25 63 102 -9 c167 -13 576 -7 747 11 637 68 1222 248 1905 586 597 296
1075 624 1595 1096 1026 930 1733 2097 2049 3384 99 404 141 744 141 1145 0
869 -217 1642 -680 2420 -151 254 -363 556 -533 759 -36 44 -64 83 -61 88 17
27 538 404 809 585 597 398 1307 802 1715 975 378 160 743 301 780 300 33 -1
371 -99 547 -158 76 -26 257 -94 403 -152 513 -203 846 -298 1270 -363 192
-29 524 -37 645 -16 246 44 454 158 511 281 61 130 8 291 -147 445 -278 277
-681 423 -1359 491 -149 15 -512 20 -664 10z m870 -225 c234 -28 408 -74 646
-171 206 -83 398 -198 457 -273 67 -85 92 -178 66 -246 -28 -74 -68 -98 -273
-165 -159 -52 -199 -62 -300 -70 -207 -17 -394 6 -733 91 -271 68 -448 128
-740 252 -387 165 -570 236 -778 302 l-194 63 54 16 c323 97 863 193 1215 216
162 10 422 4 580 -15z m-4116 5 c385 -16 692 -44 1050 -96 235 -35 368 -60
350 -67 -8 -3 -98 -36 -200 -72 -513 -185 -950 -388 -1515 -704 -512 -288
-899 -529 -1196 -746 -72 -52 -133 -95 -136 -95 -3 0 -60 51 -127 114 -253
237 -496 440 -721 603 -160 115 -461 294 -829 491 l-149 80 114 36 c1092 336
2290 499 3359 456z m-5049 -250 c269 -21 563 -73 778 -137 l124 -37 -44 -14
c-141 -46 -384 -135 -589 -217 -1169 -464 -2191 -1086 -3070 -1870 -603 -537
-1148 -1201 -1548 -1885 -49 -85 -115 -202 -145 -259 l-55 -104 -11 54 c-85
420 -78 855 18 1279 99 433 329 934 615 1340 284 404 708 811 1151 1107 623
417 1368 677 2120 742 145 12 500 13 656 1z m1478 -366 c525 -229 1058 -571
1518 -976 142 -125 283 -258 283 -267 0 -4 -60 -54 -132 -112 -583 -457 -1141
-979 -1634 -1529 -193 -216 -424 -484 -459 -533 l-21 -28 -104 22 c-136 29
-403 31 -555 5 -200 -34 -375 -87 -575 -173 -95 -41 -109 -45 -159 -39 -30 4
-93 22 -140 41 -110 44 -180 59 -251 52 -107 -9 -157 -54 -294 -261 -200 -301
-260 -480 -259 -771 0 -206 32 -361 104 -510 37 -76 89 -159 96 -152 3 3 9 43
14 89 63 557 346 1027 809 1337 199 133 429 229 640 267 127 22 354 22 480 0
52 -10 96 -19 98 -21 2 -2 -57 -79 -131 -172 -548 -687 -1066 -1462 -1449
-2163 -179 -328 -453 -892 -591 -1216 -234 -548 -427 -1124 -519 -1551 l-23
-105 -37 6 c-137 22 -456 168 -618 283 -283 202 -556 573 -664 903 -47 144
-60 239 -59 415 1 248 42 408 188 722 2 5 91 -30 144 -56 85 -44 244 -96 367
-123 155 -33 427 -33 557 0 254 63 413 168 536 352 157 235 145 475 -33 653
-108 108 -232 157 -398 157 -214 0 -405 -67 -648 -227 -194 -128 -353 -279
-496 -470 -37 -48 -70 -92 -74 -96 -4 -5 -48 18 -96 51 -363 244 -663 553
-939 967 -114 171 -183 291 -285 496 l-79 156 70 129 c193 353 446 737 691
1050 381 484 745 882 1113 1213 829 747 2023 1491 3130 1951 279 116 719 278
759 279 10 1 66 -20 125 -45z m13051 -1572 c23 -18 23 -19 6 -69 -42 -125
-281 -457 -710 -982 -229 -281 -310 -373 -558 -638 -288 -306 -618 -617 -953
-897 -99 -82 -210 -175 -246 -207 -68 -57 -242 -191 -292 -224 -46 -29 644
882 1058 1400 417 521 683 823 1015 1155 233 233 401 372 533 439 87 46 114
50 147 23z m-10774 -198 c33 -44 94 -128 134 -189 40 -60 97 -141 125 -180
172 -234 378 -634 500 -971 303 -835 336 -1817 93 -2779 -211 -838 -708 -1761
-1354 -2517 -442 -516 -932 -962 -1469 -1335 -502 -349 -1256 -709 -1837 -877
-432 -125 -754 -170 -1215 -170 -161 0 -295 2 -297 5 -2 2 -12 56 -22 119 -26
162 -26 585 -1 750 43 278 93 517 160 758 l42 152 175 0 c296 0 542 39 825
131 692 224 1313 672 1831 1320 314 393 608 983 730 1463 89 350 115 787 68
1130 -62 453 -293 906 -592 1164 l-69 59 136 171 c408 511 1121 1222 1771
1765 164 137 176 145 190 128 8 -10 42 -54 76 -97z m-2147 -2180 c306 -320
445 -719 445 -1274 0 -211 -9 -302 -55 -537 -65 -337 -169 -635 -330 -953
-357 -705 -889 -1300 -1513 -1691 -226 -141 -565 -295 -764 -345 -193 -49
-453 -84 -624 -84 -99 0 -98 -1 -63 70 7 14 61 144 120 290 467 1157 796 1823
1293 2620 117 187 483 740 715 1079 165 240 660 930 668 931 4 0 52 -48 108
-106z m-6034 -946 c151 -283 407 -629 698 -942 173 -186 381 -360 572 -477
l83 -50 -45 -97 c-54 -115 -115 -295 -140 -412 -14 -67 -18 -131 -18 -300 0
-231 12 -317 71 -498 83 -254 278 -537 526 -763 236 -215 456 -348 714 -434
77 -25 145 -49 153 -54 10 -7 12 -20 7 -52 -114 -712 -120 -1217 -21 -1663 14
-60 23 -112 20 -114 -2 -2 -62 6 -132 18 -583 102 -1023 301 -1493 676 -166
133 -530 493 -675 669 -373 453 -708 1113 -835 1648 -102 428 -122 890 -60
1371 57 442 222 989 461 1528 19 43 36 78 39 77 3 0 37 -59 75 -131z m2766
-692 c112 -26 201 -101 259 -220 37 -74 46 -136 31 -205 -53 -249 -346 -473
-680 -522 -217 -31 -510 30 -774 163 l-78 39 37 52 c215 304 542 563 820 652
158 50 289 64 385 41z m20264 -177 c21 -6 54 -26 71 -43 46 -46 52 -90 25
-188 -40 -152 -72 -203 -356 -573 -148 -192 -294 -381 -325 -420 -289 -355
-752 -808 -921 -899 -99 -55 -239 -42 -239 21 1 39 65 189 135 313 103 183
304 469 514 729 64 79 158 199 210 265 203 261 415 500 573 646 169 157 211
177 313 149z m-9553 -24 c77 -52 97 -118 69 -226 -55 -215 -148 -389 -359
-673 -209 -280 -591 -690 -804 -864 -114 -92 -418 -307 -475 -336 -77 -38
-160 -58 -215 -51 -81 11 -98 55 -69 179 60 250 281 649 544 979 175 219 434
491 646 676 94 82 302 239 371 279 111 66 228 81 292 37z m3760 0 c77 -52 97
-118 69 -226 -55 -215 -148 -389 -359 -673 -209 -280 -591 -690 -804 -864
-114 -92 -418 -307 -475 -336 -77 -38 -160 -58 -215 -51 -81 11 -98 55 -69
179 60 250 281 649 544 979 175 219 434 491 646 676 94 82 302 239 371 279
111 66 228 81 292 37z"/>
<path d="M15863 21031 c-196 -48 -323 -164 -368 -336 -13 -50 -15 -154 -15
-675 0 -671 0 -678 58 -784 60 -111 185 -196 341 -230 94 -21 319 -22 416 -1
201 43 344 172 384 346 14 59 14 1279 0 1338 -40 174 -183 303 -384 346 -100
21 -338 19 -432 -4z m341 -305 c24 -13 47 -37 60 -61 21 -39 21 -51 21 -645 0
-594 0 -606 -21 -645 -30 -59 -88 -88 -174 -88 -90 0 -147 27 -181 86 l-24 42
0 605 0 605 23 41 c13 22 37 48 53 58 66 39 174 40 243 2z"/>
<path d="M20033 21031 c-196 -48 -323 -164 -368 -336 -13 -50 -15 -154 -15
-675 0 -671 0 -678 58 -784 60 -111 185 -196 341 -230 94 -21 319 -22 416 -1
201 43 344 172 384 346 7 27 11 283 11 669 0 386 -4 642 -11 669 -40 174 -183
303 -384 346 -100 21 -338 19 -432 -4z m341 -305 c24 -13 47 -37 60 -61 21
-39 21 -51 21 -645 0 -594 0 -606 -21 -645 -30 -59 -88 -88 -174 -88 -90 0
-147 27 -181 86 l-24 42 0 605 0 605 23 41 c13 22 37 48 53 58 66 39 174 40
243 2z"/>
<path d="M22174 21031 c-103 -25 -181 -67 -245 -130 -60 -61 -90 -115 -114
-206 -22 -88 -23 -1262 0 -1350 47 -180 173 -295 374 -339 107 -24 323 -23
423 3 210 54 332 176 367 366 7 35 11 199 11 412 l0 353 -280 0 -280 0 0 -145
0 -145 90 0 90 0 0 -172 c0 -255 -13 -309 -84 -362 -23 -18 -42 -21 -121 -21
-100 0 -125 10 -167 66 -35 46 -39 138 -36 710 l3 554 24 41 c35 61 86 86 176
86 90 0 142 -25 175 -84 19 -33 23 -60 27 -179 l6 -139 188 0 189 0 0 133 c0
216 -35 325 -134 422 -107 104 -241 145 -465 144 -103 0 -167 -6 -217 -18z"/>
<path d="M13550 20020 l0 -1010 200 0 200 0 0 420 0 420 260 0 260 0 0 145 0
145 -260 0 -260 0 0 300 0 300 330 0 330 0 0 145 0 145 -530 0 -530 0 0 -1010z"/>
<path d="M17550 20885 l0 -145 210 0 210 0 0 -865 0 -865 200 0 200 0 0 865 0
865 210 0 210 0 0 145 0 145 -620 0 -620 0 0 -145z"/>
<path d="M23970 20021 l0 -1011 200 0 200 0 0 417 0 416 114 -6 c163 -9 218
-36 259 -127 19 -41 21 -73 27 -345 4 -190 11 -310 18 -327 l12 -28 210 0 211
0 -15 29 c-27 51 -36 151 -36 396 0 317 -13 376 -106 475 -24 25 -66 57 -93
70 l-50 23 57 34 c153 90 198 210 190 501 -4 126 -9 168 -26 214 -44 122 -127
198 -268 246 l-79 27 -412 3 -413 3 0 -1010z m685 700 c44 -18 84 -60 95 -100
14 -50 13 -320 -1 -362 -29 -86 -89 -116 -257 -125 l-122 -7 0 308 0 308 128
-5 c70 -3 141 -11 157 -17z"/>
<path d="M26435 21008 c-13 -55 -395 -1974 -395 -1985 0 -10 42 -13 185 -13
183 0 185 0 190 23 3 12 16 83 30 157 14 74 28 145 30 158 l5 22 239 0 238 0
26 -137 c15 -76 29 -157 33 -180 l7 -43 208 0 209 0 -5 23 c-3 12 -95 465
-204 1007 l-198 985 -296 3 -297 2 -5 -22z m374 -855 c50 -270 91 -493 91
-497 0 -3 -84 -6 -186 -6 -172 0 -185 1 -180 18 2 9 44 234 92 499 49 265 89
481 91 480 1 -1 43 -223 92 -494z"/>
<path d="M28340 20020 l0 -1010 200 0 200 0 0 420 0 420 260 0 260 0 0 145 0
145 -260 0 -260 0 0 300 0 300 330 0 330 0 0 145 0 145 -530 0 -530 0 0 -1010z"/>
<path d="M30300 20020 l0 -1010 200 0 200 0 0 1010 0 1010 -200 0 -200 0 0
-1010z"/>
<path d="M32005 21008 c-13 -55 -395 -1974 -395 -1985 0 -10 42 -13 185 -13
183 0 185 0 190 23 3 12 16 83 30 157 14 74 28 145 30 158 l5 22 239 0 238 0
26 -137 c15 -76 29 -157 33 -180 l7 -43 208 0 209 0 -5 23 c-3 12 -95 465
-204 1007 l-198 985 -296 3 -297 2 -5 -22z m374 -855 c50 -270 91 -493 91
-497 0 -3 -84 -6 -186 -6 -172 0 -185 1 -180 18 2 9 44 234 92 499 49 265 89
481 91 480 1 -1 43 -223 92 -494z"/>
</g>
</svg>
